<svg xmlns="http://www.w3.org/2000/svg" viewBox="0 0 1377 1121">
  <defs><radialGradient id="g" cx="38%" cy="30%" r="85%">
    <stop offset="0" stop-color="#fff0cf"/><stop offset="0.45" stop-color="#f3cd76"/>
    <stop offset="0.8" stop-color="#dca63f"/><stop offset="1" stop-color="#a9761f"/>
  </radialGradient></defs>
  <g fill="url(#g)">
    <path d="M 1346.00,136.00 1333.00,130.00 1330.00,130.00 1329.00,129.00 1326.00,129.00 1325.00,128.00 1321.00,128.00 1320.00,127.00 1316.00,127.00 1315.00,128.00 1315.00,992.00 1314.00,993.00 1314.00,1001.00 1313.00,1002.00 1313.00,1004.00 1312.00,1005.00 1311.00,1009.00 1303.00,1018.00 1297.00,1021.00 1289.00,1022.00 1288.00,1023.00 1282.00,1023.00 1281.00,1022.00 1258.00,1022.00 1257.00,1021.00 1237.00,1021.00 1236.00,1020.00 1208.00,1020.00 1207.00,1019.00 1175.00,1019.00 1174.00,1018.00 1128.00,1018.00 1127.00,1017.00 1065.00,1017.00 1064.00,1018.00 1029.00,1018.00 1028.00,1019.00 1006.00,1019.00 1005.00,1020.00 990.00,1020.00 989.00,1021.00 977.00,1021.00 976.00,1022.00 969.00,1022.00 968.00,1023.00 961.00,1023.00 960.00,1024.00 946.00,1025.00 945.00,1026.00 940.00,1026.00 939.00,1027.00 935.00,1027.00 934.00,1028.00 930.00,1028.00 929.00,1029.00 925.00,1029.00 924.00,1030.00 914.00,1031.00 910.00,1033.00 907.00,1033.00 906.00,1034.00 903.00,1034.00 902.00,1035.00 899.00,1035.00 898.00,1036.00 891.00,1037.00 890.00,1038.00 888.00,1038.00 887.00,1039.00 885.00,1039.00 884.00,1040.00 882.00,1040.00 881.00,1041.00 879.00,1041.00 878.00,1042.00 870.00,1044.00 867.00,1046.00 862.00,1047.00 854.00,1051.00 849.00,1052.00 819.00,1067.00 817.00,1069.00 812.00,1071.00 810.00,1073.00 807.00,1074.00 801.00,1079.00 798.00,1080.00 795.00,1083.00 791.00,1085.00 780.00,1095.00 779.00,1095.00 767.00,1107.00 767.00,1108.00 764.00,1111.00 764.00,1113.00 763.00,1114.00 763.00,1118.00 765.00,1120.00 772.00,1120.00 773.00,1119.00 780.00,1118.00 783.00,1116.00 786.00,1116.00 790.00,1114.00 793.00,1114.00 794.00,1113.00 797.00,1113.00 798.00,1112.00 801.00,1112.00 802.00,1111.00 805.00,1111.00 806.00,1110.00 809.00,1110.00 810.00,1109.00 814.00,1109.00 815.00,1108.00 824.00,1107.00 825.00,1106.00 830.00,1106.00 831.00,1105.00 836.00,1105.00 837.00,1104.00 843.00,1104.00 844.00,1103.00 861.00,1102.00 862.00,1101.00 872.00,1101.00 873.00,1100.00 886.00,1100.00 887.00,1099.00 928.00,1099.00 929.00,1098.00 930.00,1099.00 932.00,1098.00 1027.00,1098.00 1028.00,1097.00 1286.00,1097.00 1287.00,1098.00 1300.00,1098.00 1301.00,1097.00 1310.00,1097.00 1311.00,1098.00 1318.00,1098.00 1319.00,1097.00 1328.00,1097.00 1329.00,1096.00 1332.00,1096.00 1333.00,1095.00 1335.00,1095.00 1336.00,1094.00 1338.00,1094.00 1341.00,1092.00 1345.00,1091.00 1350.00,1087.00 1353.00,1086.00 1363.00,1076.00 1363.00,1075.00 1366.00,1072.00 1366.00,1071.00 1370.00,1066.00 1371.00,1062.00 1372.00,1061.00 1372.00,1059.00 1373.00,1058.00 1373.00,1056.00 1374.00,1055.00 1375.00,1047.00 1376.00,1046.00 1376.00,181.00 1375.00,180.00 1375.00,175.00 1374.00,174.00 1372.00,166.00 1369.00,160.00 1367.00,158.00 1366.00,155.00 1361.00,149.00 1361.00,148.00 1358.00,145.00 1357.00,145.00 1356.00,143.00 1355.00,143.00 1352.00,140.00 1351.00,140.00 Z"/>
    <path d="M 28.00,137.00 20.00,144.00 19.00,144.00 11.00,153.00 8.00,159.00 6.00,161.00 6.00,163.00 3.00,168.00 3.00,170.00 1.00,174.00 1.00,178.00 0.00,179.00 0.00,1047.00 1.00,1048.00 1.00,1052.00 2.00,1053.00 3.00,1059.00 9.00,1071.00 12.00,1074.00 12.00,1075.00 22.00,1085.00 23.00,1085.00 26.00,1088.00 36.00,1093.00 38.00,1093.00 39.00,1094.00 41.00,1094.00 45.00,1096.00 49.00,1096.00 50.00,1097.00 382.00,1097.00 383.00,1098.00 462.00,1098.00 463.00,1099.00 493.00,1099.00 494.00,1100.00 509.00,1100.00 510.00,1101.00 518.00,1101.00 519.00,1102.00 527.00,1102.00 528.00,1103.00 542.00,1104.00 543.00,1105.00 548.00,1105.00 549.00,1106.00 552.00,1106.00 553.00,1107.00 558.00,1107.00 559.00,1108.00 563.00,1108.00 564.00,1109.00 572.00,1110.00 576.00,1112.00 583.00,1113.00 584.00,1114.00 590.00,1115.00 591.00,1116.00 593.00,1116.00 594.00,1117.00 596.00,1117.00 600.00,1119.00 603.00,1119.00 604.00,1120.00 611.00,1120.00 613.00,1119.00 614.00,1115.00 613.00,1114.00 612.00,1110.00 596.00,1094.00 595.00,1094.00 590.00,1089.00 589.00,1089.00 586.00,1086.00 582.00,1084.00 575.00,1078.00 574.00,1078.00 569.00,1074.00 566.00,1073.00 564.00,1071.00 561.00,1070.00 559.00,1068.00 552.00,1065.00 548.00,1062.00 546.00,1062.00 544.00,1060.00 540.00,1058.00 538.00,1058.00 525.00,1051.00 523.00,1051.00 515.00,1047.00 513.00,1047.00 512.00,1046.00 507.00,1045.00 504.00,1043.00 502.00,1043.00 501.00,1042.00 499.00,1042.00 495.00,1040.00 492.00,1040.00 491.00,1039.00 489.00,1039.00 488.00,1038.00 486.00,1038.00 482.00,1036.00 479.00,1036.00 478.00,1035.00 475.00,1035.00 474.00,1034.00 471.00,1034.00 467.00,1032.00 463.00,1032.00 462.00,1031.00 459.00,1031.00 458.00,1030.00 448.00,1029.00 447.00,1028.00 444.00,1028.00 443.00,1027.00 438.00,1027.00 437.00,1026.00 425.00,1025.00 424.00,1024.00 416.00,1024.00 415.00,1023.00 401.00,1022.00 400.00,1021.00 389.00,1021.00 388.00,1020.00 372.00,1020.00 371.00,1019.00 348.00,1019.00 347.00,1018.00 314.00,1018.00 313.00,1017.00 246.00,1017.00 245.00,1018.00 202.00,1018.00 201.00,1019.00 170.00,1019.00 169.00,1020.00 146.00,1020.00 145.00,1021.00 121.00,1021.00 120.00,1022.00 100.00,1022.00 99.00,1023.00 90.00,1023.00 89.00,1022.00 84.00,1022.00 83.00,1021.00 80.00,1021.00 79.00,1020.00 77.00,1020.00 73.00,1018.00 65.00,1009.00 65.00,1007.00 64.00,1006.00 64.00,1004.00 62.00,1000.00 62.00,990.00 61.00,989.00 61.00,128.00 60.00,127.00 54.00,127.00 53.00,128.00 50.00,128.00 46.00,130.00 40.00,131.00 Z"/>
    <path d="M 1253.00,13.00 1249.00,12.00 1248.00,11.00 1245.00,11.00 1244.00,10.00 1234.00,9.00 1233.00,8.00 1228.00,8.00 1227.00,7.00 1222.00,7.00 1221.00,6.00 1213.00,6.00 1212.00,5.00 1204.00,5.00 1203.00,4.00 1196.00,4.00 1195.00,3.00 1186.00,3.00 1185.00,2.00 1171.00,2.00 1170.00,1.00 1151.00,1.00 1150.00,0.00 1089.00,0.00 1088.00,1.00 1067.00,1.00 1066.00,2.00 1052.00,2.00 1051.00,3.00 1043.00,3.00 1042.00,4.00 1033.00,4.00 1032.00,5.00 1024.00,5.00 1023.00,6.00 1007.00,7.00 1006.00,8.00 1001.00,8.00 1000.00,9.00 995.00,9.00 994.00,10.00 989.00,10.00 988.00,11.00 977.00,12.00 976.00,13.00 967.00,14.00 966.00,15.00 963.00,15.00 962.00,16.00 958.00,16.00 957.00,17.00 948.00,18.00 947.00,19.00 944.00,19.00 940.00,21.00 937.00,21.00 936.00,22.00 933.00,22.00 932.00,23.00 925.00,24.00 924.00,25.00 922.00,25.00 918.00,27.00 915.00,27.00 911.00,29.00 908.00,29.00 907.00,30.00 905.00,30.00 904.00,31.00 902.00,31.00 901.00,32.00 899.00,32.00 898.00,33.00 890.00,35.00 887.00,37.00 885.00,37.00 884.00,38.00 876.00,40.00 871.00,43.00 869.00,43.00 868.00,44.00 863.00,45.00 860.00,47.00 858.00,47.00 855.00,49.00 853.00,49.00 819.00,66.00 815.00,67.00 813.00,69.00 808.00,71.00 801.00,76.00 789.00,82.00 787.00,84.00 786.00,84.00 781.00,88.00 778.00,89.00 775.00,92.00 774.00,92.00 772.00,94.00 765.00,98.00 761.00,102.00 760.00,102.00 756.00,106.00 755.00,106.00 751.00,110.00 750.00,110.00 744.00,116.00 743.00,116.00 728.00,131.00 728.00,132.00 722.00,138.00 720.00,142.00 717.00,145.00 714.00,151.00 714.00,1084.00 715.00,1085.00 740.00,1061.00 741.00,1061.00 747.00,1055.00 748.00,1055.00 752.00,1051.00 753.00,1051.00 756.00,1048.00 757.00,1048.00 761.00,1044.00 762.00,1044.00 765.00,1041.00 772.00,1037.00 775.00,1034.00 779.00,1032.00 785.00,1027.00 788.00,1026.00 793.00,1022.00 796.00,1021.00 798.00,1019.00 806.00,1015.00 808.00,1013.00 815.00,1010.00 817.00,1008.00 849.00,992.00 851.00,992.00 856.00,989.00 858.00,989.00 865.00,985.00 870.00,984.00 875.00,981.00 877.00,981.00 880.00,979.00 885.00,978.00 888.00,976.00 890.00,976.00 891.00,975.00 893.00,975.00 894.00,974.00 896.00,974.00 897.00,973.00 899.00,973.00 900.00,972.00 902.00,972.00 903.00,971.00 905.00,971.00 906.00,970.00 908.00,970.00 909.00,969.00 911.00,969.00 915.00,967.00 918.00,967.00 919.00,966.00 921.00,966.00 925.00,964.00 928.00,964.00 932.00,962.00 935.00,962.00 936.00,961.00 939.00,961.00 940.00,960.00 943.00,960.00 944.00,959.00 947.00,959.00 948.00,958.00 951.00,958.00 952.00,957.00 955.00,957.00 956.00,956.00 965.00,955.00 966.00,954.00 969.00,954.00 970.00,953.00 979.00,952.00 980.00,951.00 985.00,951.00 986.00,950.00 991.00,950.00 992.00,949.00 997.00,949.00 998.00,948.00 1003.00,948.00 1004.00,947.00 1009.00,947.00 1010.00,946.00 1017.00,946.00 1018.00,945.00 1025.00,945.00 1026.00,944.00 1033.00,944.00 1034.00,943.00 1045.00,943.00 1046.00,942.00 1055.00,942.00 1056.00,941.00 1075.00,941.00 1076.00,940.00 1140.00,940.00 1141.00,941.00 1163.00,941.00 1164.00,942.00 1178.00,942.00 1179.00,943.00 1191.00,943.00 1192.00,944.00 1203.00,944.00 1204.00,945.00 1216.00,945.00 1217.00,946.00 1228.00,946.00 1229.00,947.00 1237.00,947.00 1238.00,948.00 1245.00,948.00 1246.00,949.00 1249.00,949.00 1250.00,948.00 1253.00,948.00 1257.00,946.00 1262.00,940.00 1262.00,938.00 1263.00,937.00 1263.00,26.00 1262.00,25.00 1262.00,23.00 1260.00,19.00 Z"/>
    <path d="M 124.00,12.00 122.00,14.00 121.00,14.00 114.00,22.00 114.00,24.00 113.00,25.00 113.00,31.00 112.00,32.00 113.00,33.00 113.00,937.00 114.00,938.00 114.00,940.00 116.00,942.00 116.00,943.00 121.00,947.00 127.00,948.00 128.00,949.00 130.00,949.00 131.00,948.00 138.00,948.00 139.00,947.00 147.00,947.00 148.00,946.00 160.00,946.00 161.00,945.00 172.00,945.00 173.00,944.00 183.00,944.00 184.00,943.00 197.00,943.00 198.00,942.00 212.00,942.00 213.00,941.00 234.00,941.00 235.00,940.00 302.00,940.00 303.00,941.00 324.00,941.00 325.00,942.00 334.00,942.00 335.00,943.00 343.00,943.00 344.00,944.00 353.00,944.00 354.00,945.00 369.00,946.00 370.00,947.00 375.00,947.00 376.00,948.00 381.00,948.00 382.00,949.00 393.00,950.00 394.00,951.00 398.00,951.00 399.00,952.00 408.00,953.00 409.00,954.00 412.00,954.00 413.00,955.00 416.00,955.00 417.00,956.00 421.00,956.00 422.00,957.00 430.00,958.00 431.00,959.00 437.00,960.00 441.00,962.00 444.00,962.00 445.00,963.00 452.00,964.00 453.00,965.00 455.00,965.00 459.00,967.00 462.00,967.00 463.00,968.00 465.00,968.00 466.00,969.00 468.00,969.00 469.00,970.00 471.00,970.00 472.00,971.00 474.00,971.00 475.00,972.00 483.00,974.00 486.00,976.00 494.00,978.00 497.00,980.00 499.00,980.00 502.00,982.00 504.00,982.00 507.00,984.00 509.00,984.00 512.00,986.00 514.00,986.00 521.00,990.00 523.00,990.00 532.00,995.00 534.00,995.00 538.00,997.00 542.00,1000.00 544.00,1000.00 550.00,1003.00 552.00,1005.00 559.00,1008.00 561.00,1010.00 577.00,1018.00 580.00,1021.00 583.00,1022.00 588.00,1026.00 591.00,1027.00 593.00,1029.00 594.00,1029.00 596.00,1031.00 603.00,1035.00 611.00,1042.00 612.00,1042.00 622.00,1050.00 623.00,1050.00 635.00,1061.00 636.00,1061.00 661.00,1085.00 663.00,1083.00 663.00,154.00 662.00,153.00 662.00,151.00 659.00,145.00 654.00,139.00 654.00,138.00 648.00,132.00 648.00,131.00 633.00,116.00 632.00,116.00 619.00,104.00 615.00,102.00 604.00,93.00 603.00,93.00 592.00,85.00 589.00,84.00 587.00,82.00 584.00,81.00 582.00,79.00 574.00,75.00 572.00,73.00 565.00,70.00 563.00,68.00 547.00,60.00 545.00,60.00 539.00,56.00 537.00,56.00 534.00,54.00 532.00,54.00 516.00,46.00 514.00,46.00 511.00,44.00 506.00,43.00 498.00,39.00 496.00,39.00 495.00,38.00 493.00,38.00 492.00,37.00 490.00,37.00 489.00,36.00 487.00,36.00 486.00,35.00 484.00,35.00 483.00,34.00 481.00,34.00 480.00,33.00 472.00,31.00 469.00,29.00 466.00,29.00 465.00,28.00 459.00,27.00 455.00,25.00 452.00,25.00 451.00,24.00 448.00,24.00 447.00,23.00 444.00,23.00 443.00,22.00 436.00,21.00 435.00,20.00 429.00,19.00 428.00,18.00 419.00,17.00 418.00,16.00 410.00,15.00 409.00,14.00 401.00,13.00 400.00,12.00 395.00,12.00 394.00,11.00 383.00,10.00 382.00,9.00 378.00,9.00 377.00,8.00 371.00,8.00 370.00,7.00 354.00,6.00 353.00,5.00 345.00,5.00 344.00,4.00 335.00,4.00 334.00,3.00 326.00,3.00 325.00,2.00 311.00,2.00 310.00,1.00 291.00,1.00 290.00,0.00 228.00,0.00 227.00,1.00 207.00,1.00 206.00,2.00 193.00,2.00 192.00,3.00 182.00,3.00 181.00,4.00 173.00,4.00 172.00,5.00 165.00,5.00 164.00,6.00 155.00,6.00 154.00,7.00 148.00,7.00 147.00,8.00 137.00,9.00 136.00,10.00 132.00,10.00 131.00,11.00 127.00,11.00 126.00,12.00 Z"/>
  </g>
</svg>
