<svg xmlns="http://www.w3.org/2000/svg" viewBox="0 0 1274 895">
  <defs><radialGradient id="g" cx="38%" cy="30%" r="85%">
    <stop offset="0" stop-color="#fff0cf"/><stop offset="0.45" stop-color="#f3cd76"/>
    <stop offset="0.8" stop-color="#dca63f"/><stop offset="1" stop-color="#a9761f"/>
  </radialGradient></defs>
  <path fill="url(#g)" fill-rule="evenodd" d="M 158 96 L 154 103 L 151 106 L 151 107 L 143 118 L 141 123 L 139 125 L 135 133 L 131 138 L 107 186 L 107 188 L 104 193 L 104 195 L 98 207 L 97 212 L 93 219 L 91 227 L 87 235 L 87 237 L 86 238 L 86 240 L 85 241 L 85 243 L 84 244 L 84 246 L 83 247 L 83 249 L 82 250 L 82 252 L 81 253 L 81 255 L 80 256 L 80 258 L 79 259 L 79 261 L 78 262 L 78 264 L 77 265 L 77 267 L 76 268 L 76 270 L 75 271 L 75 273 L 74 274 L 74 276 L 73 277 L 73 279 L 71 283 L 71 286 L 70 287 L 70 289 L 69 290 L 69 292 L 67 296 L 67 299 L 66 300 L 66 303 L 64 307 L 64 310 L 63 311 L 63 313 L 61 317 L 61 320 L 60 321 L 59 328 L 58 329 L 58 331 L 57 332 L 57 334 L 55 338 L 54 345 L 53 346 L 53 348 L 51 352 L 51 355 L 50 356 L 50 359 L 49 360 L 48 367 L 47 368 L 47 370 L 45 374 L 44 382 L 43 383 L 42 390 L 41 391 L 40 397 L 39 398 L 38 407 L 37 408 L 37 411 L 35 415 L 35 418 L 34 419 L 34 422 L 33 423 L 33 427 L 32 428 L 32 431 L 31 432 L 31 435 L 30 436 L 30 439 L 29 440 L 29 444 L 28 445 L 28 449 L 27 450 L 27 454 L 26 455 L 26 459 L 25 460 L 25 463 L 24 464 L 24 468 L 23 469 L 23 473 L 22 474 L 22 478 L 21 479 L 21 484 L 20 485 L 20 489 L 19 490 L 19 494 L 18 495 L 18 500 L 17 501 L 17 505 L 16 506 L 16 511 L 15 512 L 15 517 L 14 518 L 14 522 L 13 523 L 13 528 L 12 529 L 12 533 L 11 534 L 11 540 L 10 541 L 10 547 L 9 548 L 9 554 L 8 555 L 8 562 L 7 563 L 7 570 L 6 571 L 6 580 L 5 581 L 5 590 L 4 591 L 4 601 L 3 602 L 3 611 L 2 612 L 2 624 L 1 625 L 1 644 L 0 645 L 0 706 L 1 707 L 1 725 L 2 726 L 2 733 L 3 734 L 4 748 L 5 749 L 5 754 L 6 755 L 7 765 L 8 766 L 9 773 L 11 777 L 11 781 L 12 782 L 14 790 L 16 793 L 18 801 L 22 808 L 22 810 L 28 822 L 30 824 L 33 830 L 35 832 L 39 839 L 42 842 L 42 843 L 48 849 L 48 850 L 62 864 L 63 864 L 67 868 L 68 868 L 79 876 L 82 877 L 84 879 L 96 885 L 98 885 L 99 886 L 101 886 L 102 887 L 104 887 L 105 888 L 107 888 L 111 890 L 119 891 L 120 892 L 124 892 L 125 893 L 131 893 L 132 894 L 158 894 L 159 893 L 165 893 L 166 892 L 176 891 L 177 890 L 180 890 L 181 889 L 186 888 L 194 884 L 196 884 L 208 878 L 210 876 L 213 875 L 215 873 L 216 873 L 218 871 L 219 871 L 221 869 L 228 865 L 232 861 L 233 861 L 242 853 L 243 853 L 252 844 L 253 844 L 282 815 L 282 814 L 292 804 L 292 803 L 309 785 L 309 784 L 314 779 L 314 778 L 327 764 L 327 763 L 331 759 L 331 758 L 337 752 L 337 751 L 357 728 L 357 727 L 361 723 L 361 722 L 367 716 L 367 715 L 371 711 L 371 710 L 385 695 L 385 694 L 391 688 L 391 687 L 410 667 L 411 667 L 423 656 L 424 656 L 427 653 L 433 650 L 435 648 L 439 646 L 441 646 L 446 643 L 448 643 L 449 642 L 451 642 L 455 640 L 465 639 L 466 638 L 809 638 L 810 639 L 816 639 L 817 640 L 820 640 L 821 641 L 825 641 L 826 642 L 831 643 L 850 653 L 853 656 L 854 656 L 857 659 L 858 659 L 866 667 L 867 667 L 881 681 L 881 682 L 891 692 L 891 693 L 896 698 L 896 699 L 909 713 L 909 714 L 913 718 L 913 719 L 925 732 L 925 733 L 930 738 L 930 739 L 935 744 L 935 745 L 940 750 L 940 751 L 946 757 L 946 758 L 958 771 L 958 772 L 964 778 L 964 779 L 971 786 L 971 787 L 993 810 L 993 811 L 1023 841 L 1024 841 L 1034 851 L 1035 851 L 1040 856 L 1041 856 L 1054 867 L 1055 867 L 1066 875 L 1069 876 L 1071 878 L 1085 885 L 1087 885 L 1090 887 L 1092 887 L 1093 888 L 1095 888 L 1099 890 L 1102 890 L 1103 891 L 1106 891 L 1107 892 L 1110 892 L 1111 893 L 1118 893 L 1119 894 L 1150 894 L 1151 893 L 1156 893 L 1157 892 L 1166 891 L 1167 890 L 1169 890 L 1170 889 L 1178 887 L 1181 885 L 1183 885 L 1193 880 L 1195 878 L 1202 874 L 1210 867 L 1211 867 L 1223 855 L 1223 854 L 1226 851 L 1226 850 L 1233 842 L 1236 836 L 1240 831 L 1249 813 L 1249 811 L 1254 801 L 1254 799 L 1255 798 L 1255 796 L 1257 792 L 1257 789 L 1259 786 L 1259 783 L 1261 779 L 1261 776 L 1262 775 L 1262 772 L 1263 771 L 1263 767 L 1264 766 L 1264 763 L 1265 762 L 1265 758 L 1266 757 L 1267 745 L 1268 744 L 1268 737 L 1269 736 L 1269 729 L 1270 728 L 1270 721 L 1271 720 L 1271 706 L 1272 705 L 1272 685 L 1273 684 L 1273 652 L 1272 651 L 1272 628 L 1271 627 L 1270 600 L 1269 599 L 1269 588 L 1268 587 L 1268 577 L 1267 576 L 1266 558 L 1265 557 L 1265 551 L 1264 550 L 1264 545 L 1263 544 L 1263 537 L 1262 536 L 1262 530 L 1261 529 L 1260 516 L 1259 515 L 1258 505 L 1257 504 L 1256 494 L 1255 493 L 1255 487 L 1254 486 L 1253 477 L 1252 476 L 1252 473 L 1251 472 L 1251 467 L 1250 466 L 1249 457 L 1248 456 L 1248 453 L 1247 452 L 1247 448 L 1246 447 L 1246 443 L 1245 442 L 1244 433 L 1243 432 L 1243 429 L 1242 428 L 1242 425 L 1241 424 L 1241 421 L 1240 420 L 1240 416 L 1239 415 L 1239 412 L 1238 411 L 1238 407 L 1237 406 L 1237 403 L 1236 402 L 1236 399 L 1235 398 L 1235 395 L 1234 394 L 1234 391 L 1233 390 L 1233 387 L 1232 386 L 1232 383 L 1231 382 L 1231 379 L 1230 378 L 1230 375 L 1229 374 L 1229 371 L 1228 370 L 1228 367 L 1227 366 L 1227 363 L 1226 362 L 1226 359 L 1225 358 L 1225 355 L 1224 354 L 1223 347 L 1222 346 L 1222 344 L 1220 340 L 1219 333 L 1218 332 L 1218 330 L 1216 326 L 1216 323 L 1214 319 L 1214 316 L 1213 315 L 1212 308 L 1210 305 L 1210 302 L 1209 301 L 1209 299 L 1207 295 L 1207 292 L 1206 291 L 1206 289 L 1205 288 L 1205 286 L 1204 285 L 1204 283 L 1203 282 L 1203 280 L 1202 279 L 1202 277 L 1201 276 L 1201 274 L 1200 273 L 1200 271 L 1199 270 L 1199 268 L 1198 267 L 1198 265 L 1197 264 L 1197 262 L 1196 261 L 1196 259 L 1195 258 L 1193 250 L 1191 247 L 1189 239 L 1187 236 L 1185 228 L 1183 225 L 1183 223 L 1181 220 L 1180 215 L 1177 210 L 1177 208 L 1175 205 L 1175 203 L 1173 200 L 1173 198 L 1171 195 L 1171 193 L 1165 181 L 1165 179 L 1159 168 L 1159 166 L 1146 140 L 1144 138 L 1137 124 L 1135 122 L 1134 119 L 1132 117 L 1132 116 L 1130 114 L 1130 113 L 1128 111 L 1128 110 L 1126 108 L 1122 101 L 1116 94 L 1116 93 L 1112 89 L 1112 88 L 1109 85 L 1109 84 L 1103 78 L 1103 77 L 1092 66 L 1092 65 L 1091 65 L 1080 54 L 1079 54 L 1074 49 L 1073 49 L 1068 44 L 1064 42 L 1061 39 L 1060 39 L 1052 33 L 1034 24 L 1032 22 L 1028 20 L 1026 20 L 1021 17 L 1013 15 L 1010 13 L 1008 13 L 1004 11 L 1001 11 L 997 9 L 994 9 L 990 7 L 986 7 L 985 6 L 981 6 L 980 5 L 974 5 L 973 4 L 959 3 L 958 2 L 918 2 L 917 3 L 909 3 L 908 4 L 901 4 L 900 5 L 895 5 L 894 6 L 885 7 L 881 9 L 878 9 L 877 10 L 870 11 L 869 12 L 867 12 L 866 13 L 864 13 L 863 14 L 861 14 L 860 15 L 852 17 L 849 19 L 844 20 L 841 22 L 839 22 L 831 26 L 829 26 L 822 30 L 820 30 L 817 32 L 815 32 L 808 36 L 806 36 L 803 38 L 801 38 L 796 41 L 791 42 L 784 46 L 779 47 L 774 50 L 769 51 L 766 53 L 764 53 L 763 54 L 761 54 L 760 55 L 758 55 L 757 56 L 755 56 L 754 57 L 752 57 L 751 58 L 749 58 L 748 59 L 746 59 L 742 61 L 739 61 L 738 62 L 735 62 L 734 63 L 731 63 L 730 64 L 727 64 L 726 65 L 723 65 L 722 66 L 718 66 L 717 67 L 709 68 L 708 69 L 703 69 L 702 70 L 697 70 L 696 71 L 680 72 L 679 73 L 668 73 L 667 74 L 623 74 L 622 73 L 609 73 L 608 72 L 600 72 L 599 71 L 592 71 L 591 70 L 580 69 L 579 68 L 571 67 L 570 66 L 566 66 L 565 65 L 562 65 L 561 64 L 554 63 L 550 61 L 547 61 L 543 59 L 540 59 L 539 58 L 537 58 L 536 57 L 534 57 L 533 56 L 531 56 L 530 55 L 528 55 L 527 54 L 519 52 L 516 50 L 508 48 L 505 46 L 503 46 L 500 44 L 495 43 L 492 41 L 490 41 L 482 37 L 477 36 L 474 34 L 472 34 L 469 32 L 467 32 L 464 30 L 462 30 L 454 26 L 449 25 L 446 23 L 441 22 L 438 20 L 436 20 L 435 19 L 433 19 L 432 18 L 430 18 L 429 17 L 427 17 L 426 16 L 424 16 L 423 15 L 421 15 L 420 14 L 418 14 L 414 12 L 411 12 L 407 10 L 404 10 L 400 8 L 397 8 L 396 7 L 393 7 L 392 6 L 389 6 L 388 5 L 383 5 L 382 4 L 377 4 L 376 3 L 371 3 L 370 2 L 363 2 L 362 1 L 348 1 L 347 0 L 317 1 L 316 2 L 310 2 L 309 3 L 304 3 L 303 4 L 293 5 L 292 6 L 285 7 L 284 8 L 282 8 L 278 10 L 275 10 L 274 11 L 266 13 L 263 15 L 258 16 L 251 20 L 249 20 L 235 27 L 233 29 L 230 30 L 228 32 L 225 33 L 223 35 L 222 35 L 220 37 L 213 41 L 200 52 L 199 52 L 192 59 L 191 59 L 178 72 L 178 73 L 176 74 L 176 75 L 170 81 L 170 82 L 165 87 L 165 88 L 162 91 L 162 92 Z M 792 327 L 797 327 L 798 326 L 814 326 L 815 327 L 818 327 L 819 328 L 822 328 L 823 329 L 828 330 L 838 335 L 841 338 L 842 338 L 845 341 L 846 341 L 857 353 L 865 368 L 866 374 L 867 375 L 867 380 L 868 381 L 868 399 L 867 400 L 866 408 L 864 411 L 864 413 L 860 421 L 858 423 L 856 427 L 851 432 L 851 433 L 849 434 L 839 443 L 827 449 L 821 450 L 820 451 L 817 451 L 816 452 L 794 452 L 793 451 L 789 451 L 788 450 L 783 449 L 780 447 L 778 447 L 774 444 L 768 441 L 756 430 L 756 429 L 751 423 L 746 413 L 746 411 L 745 410 L 745 408 L 743 404 L 743 401 L 742 400 L 742 393 L 741 392 L 741 387 L 742 386 L 742 379 L 743 378 L 743 374 L 744 373 L 745 367 L 750 357 L 752 355 L 754 351 L 766 339 L 767 339 L 772 335 L 782 330 L 784 330 L 788 328 L 791 328 Z M 327 175 L 381 175 L 384 177 L 386 177 L 392 183 L 394 187 L 394 189 L 395 190 L 395 275 L 483 275 L 484 276 L 486 276 L 490 278 L 494 282 L 494 283 L 497 287 L 497 290 L 498 291 L 498 344 L 497 345 L 497 348 L 495 352 L 489 358 L 485 359 L 484 360 L 396 360 L 395 361 L 395 446 L 394 447 L 393 451 L 386 458 L 384 458 L 381 460 L 326 460 L 325 459 L 323 459 L 319 457 L 314 452 L 314 451 L 312 449 L 312 445 L 311 444 L 311 361 L 310 360 L 222 360 L 216 357 L 211 352 L 210 348 L 209 347 L 209 289 L 210 288 L 211 284 L 217 278 L 221 276 L 223 276 L 224 275 L 311 275 L 311 191 L 312 190 L 312 187 L 315 183 L 315 182 L 319 178 L 323 176 L 326 176 Z M 936 167 L 940 167 L 941 166 L 951 166 L 952 165 L 954 166 L 963 166 L 964 167 L 968 167 L 969 168 L 974 169 L 984 174 L 986 176 L 990 178 L 1001 189 L 1003 193 L 1006 196 L 1009 202 L 1009 204 L 1011 207 L 1011 210 L 1012 211 L 1012 214 L 1013 215 L 1013 219 L 1014 220 L 1014 235 L 1013 236 L 1013 241 L 1011 245 L 1011 248 L 1009 251 L 1009 253 L 1007 257 L 1005 259 L 1004 262 L 1001 265 L 1001 266 L 991 276 L 990 276 L 984 281 L 974 286 L 972 286 L 968 288 L 964 288 L 963 289 L 942 289 L 941 288 L 934 287 L 928 284 L 926 284 L 924 282 L 919 280 L 916 277 L 915 277 L 903 265 L 903 264 L 899 259 L 893 246 L 892 238 L 891 237 L 891 217 L 892 216 L 893 208 L 896 203 L 897 199 L 899 197 L 903 190 L 906 187 L 906 186 L 911 181 L 912 181 L 916 177 L 917 177 L 922 173 L 930 169 L 932 169 Z"/>
</svg>
