<svg xmlns="http://www.w3.org/2000/svg" viewBox="0 0 1215 1146">
  <defs><radialGradient id="g" cx="38%" cy="30%" r="85%">
    <stop offset="0" stop-color="#fff0cf"/><stop offset="0.45" stop-color="#f3cd76"/>
    <stop offset="0.8" stop-color="#dca63f"/><stop offset="1" stop-color="#a9761f"/>
  </radialGradient></defs>
  <path fill="url(#g)" fill-rule="evenodd" d="M 141 194 L 105 239 L 80 277 L 69 296 L 69 298 L 51 332 L 31 382 L 16 434 L 5 493 L 2 533 L 1 534 L 1 550 L 0 551 L 1 612 L 2 613 L 2 623 L 3 624 L 3 634 L 4 635 L 6 658 L 17 714 L 32 764 L 52 814 L 75 858 L 108 909 L 135 943 L 151 961 L 192 1001 L 217 1022 L 254 1049 L 286 1069 L 330 1092 L 368 1108 L 423 1126 L 467 1136 L 491 1139 L 498 1141 L 527 1143 L 528 1144 L 541 1144 L 542 1145 L 1174 1145 L 1188 1141 L 1197 1135 L 1203 1129 L 1210 1118 L 1213 1108 L 1214 1094 L 1212 1084 L 1205 1069 L 1195 1059 L 1180 1052 L 1176 1051 L 917 1051 L 912 1049 L 909 1045 L 909 1041 L 914 1035 L 924 1028 L 951 1005 L 982 975 L 1002 953 L 1041 902 L 1056 879 L 1077 842 L 1087 820 L 1090 816 L 1101 790 L 1102 785 L 1111 764 L 1122 728 L 1133 681 L 1138 651 L 1140 623 L 1141 622 L 1141 607 L 1142 606 L 1142 587 L 1143 586 L 1142 536 L 1141 535 L 1139 498 L 1135 478 L 1135 472 L 1122 412 L 1120 409 L 1118 399 L 1101 351 L 1078 302 L 1062 274 L 1039 239 L 1020 214 L 997 187 L 961 151 L 933 127 L 912 111 L 860 77 L 818 55 L 762 32 L 737 25 L 734 23 L 703 15 L 656 6 L 617 3 L 616 2 L 605 2 L 604 1 L 579 1 L 578 0 L 541 1 L 540 2 L 527 2 L 526 3 L 490 6 L 433 17 L 391 29 L 388 31 L 363 39 L 320 58 L 266 88 L 219 121 L 178 156 Z M 237 330 L 267 330 L 268 331 L 275 331 L 276 332 L 280 332 L 281 333 L 289 334 L 293 336 L 296 336 L 297 337 L 302 338 L 310 342 L 312 342 L 320 346 L 322 348 L 325 349 L 327 351 L 330 352 L 339 358 L 351 369 L 352 369 L 362 379 L 377 399 L 389 423 L 389 426 L 394 439 L 395 449 L 396 450 L 396 456 L 397 457 L 397 473 L 398 474 L 398 479 L 397 480 L 397 489 L 396 490 L 396 496 L 395 497 L 394 508 L 391 515 L 391 518 L 390 519 L 389 524 L 385 531 L 385 533 L 380 543 L 369 560 L 352 579 L 351 579 L 344 586 L 327 598 L 322 600 L 320 602 L 314 605 L 312 605 L 307 608 L 299 610 L 296 612 L 293 612 L 292 613 L 289 613 L 288 614 L 285 614 L 280 616 L 275 616 L 274 617 L 266 617 L 265 618 L 239 618 L 238 617 L 231 617 L 230 616 L 225 616 L 224 615 L 216 614 L 215 613 L 201 609 L 196 606 L 194 606 L 182 600 L 164 588 L 158 582 L 157 582 L 139 563 L 126 543 L 118 526 L 118 524 L 114 514 L 113 507 L 111 503 L 111 498 L 110 497 L 110 489 L 109 488 L 109 459 L 110 458 L 111 446 L 112 445 L 114 434 L 115 433 L 118 422 L 122 415 L 122 413 L 127 403 L 137 388 L 149 375 L 149 374 L 162 362 L 181 349 L 202 339 L 204 339 L 214 335 L 217 335 L 218 334 L 221 334 L 226 332 L 230 332 L 231 331 L 236 331 Z M 886 331 L 902 331 L 903 332 L 912 332 L 913 333 L 919 333 L 920 334 L 924 334 L 925 335 L 932 336 L 936 338 L 939 338 L 942 340 L 950 342 L 964 349 L 983 362 L 1001 379 L 1001 380 L 1010 390 L 1018 402 L 1023 412 L 1023 414 L 1027 421 L 1027 423 L 1031 433 L 1031 436 L 1033 441 L 1033 445 L 1034 446 L 1034 451 L 1035 452 L 1035 458 L 1036 459 L 1036 486 L 1035 487 L 1035 494 L 1034 495 L 1034 500 L 1032 505 L 1031 513 L 1029 516 L 1026 527 L 1023 532 L 1023 534 L 1019 542 L 1004 564 L 984 584 L 967 596 L 942 608 L 939 608 L 932 611 L 929 611 L 924 613 L 920 613 L 919 614 L 902 615 L 901 616 L 887 616 L 886 615 L 869 614 L 868 613 L 860 612 L 856 610 L 846 608 L 843 606 L 836 604 L 816 593 L 804 584 L 797 577 L 796 577 L 784 564 L 775 552 L 763 529 L 763 527 L 760 522 L 760 519 L 757 512 L 757 509 L 755 504 L 755 500 L 754 499 L 754 495 L 753 494 L 753 486 L 752 485 L 752 462 L 753 461 L 753 452 L 754 451 L 754 447 L 755 446 L 758 431 L 768 407 L 784 383 L 804 363 L 824 349 L 830 346 L 832 346 L 841 341 L 843 341 L 853 337 L 856 337 L 857 336 L 860 336 L 865 334 L 870 334 L 871 333 L 876 333 L 877 332 L 885 332 Z M 549 96 L 556 96 L 557 95 L 586 95 L 587 96 L 600 97 L 601 98 L 611 100 L 612 101 L 623 104 L 628 107 L 630 107 L 645 115 L 648 118 L 655 122 L 664 130 L 665 130 L 668 134 L 669 134 L 673 138 L 673 139 L 677 142 L 693 164 L 695 169 L 698 173 L 698 175 L 703 185 L 703 187 L 707 197 L 707 200 L 709 205 L 709 210 L 710 211 L 710 218 L 711 219 L 711 250 L 710 251 L 710 258 L 709 259 L 708 268 L 706 272 L 706 275 L 705 276 L 703 284 L 700 289 L 700 291 L 693 305 L 684 317 L 682 321 L 664 340 L 663 340 L 650 351 L 644 354 L 639 358 L 619 367 L 617 367 L 610 370 L 599 372 L 598 373 L 593 373 L 592 374 L 582 374 L 581 375 L 561 375 L 560 374 L 552 374 L 551 373 L 541 372 L 540 371 L 537 371 L 536 370 L 533 370 L 532 369 L 524 367 L 512 361 L 510 361 L 490 349 L 482 342 L 481 342 L 467 328 L 467 327 L 462 322 L 454 311 L 448 299 L 446 297 L 444 293 L 444 291 L 442 288 L 442 286 L 440 283 L 440 281 L 437 274 L 437 271 L 435 267 L 434 259 L 433 258 L 433 252 L 432 251 L 432 220 L 433 219 L 433 212 L 434 211 L 435 202 L 436 201 L 437 195 L 438 194 L 439 189 L 441 186 L 442 181 L 450 165 L 460 150 L 482 127 L 500 114 L 520 104 L 522 104 L 529 101 L 532 101 L 536 99 L 539 99 L 543 97 L 548 97 Z M 761 708 L 784 709 L 785 710 L 790 710 L 791 711 L 795 711 L 796 712 L 800 712 L 801 713 L 808 714 L 811 716 L 822 719 L 836 726 L 838 728 L 841 729 L 850 735 L 859 743 L 860 743 L 877 761 L 888 777 L 897 795 L 898 800 L 900 803 L 901 810 L 904 818 L 905 830 L 906 831 L 906 863 L 905 864 L 904 876 L 901 884 L 900 891 L 898 894 L 898 896 L 896 899 L 896 901 L 893 908 L 891 910 L 884 924 L 876 935 L 861 951 L 860 951 L 849 961 L 837 969 L 816 979 L 814 979 L 807 982 L 800 983 L 799 984 L 795 984 L 794 985 L 790 985 L 789 986 L 784 986 L 783 987 L 752 987 L 751 986 L 745 986 L 744 985 L 740 985 L 739 984 L 731 983 L 730 982 L 716 978 L 711 975 L 709 975 L 703 972 L 679 956 L 660 937 L 646 917 L 639 903 L 638 898 L 634 890 L 634 887 L 633 886 L 631 876 L 630 875 L 629 863 L 628 862 L 628 833 L 629 832 L 629 825 L 630 824 L 630 820 L 631 819 L 632 812 L 634 808 L 634 805 L 644 782 L 646 780 L 648 775 L 652 769 L 662 757 L 662 756 L 675 743 L 676 743 L 689 732 L 695 729 L 697 727 L 715 718 L 720 717 L 723 715 L 738 712 L 739 711 L 744 711 L 745 710 L 750 710 L 751 709 L 760 709 Z M 362 707 L 385 707 L 386 708 L 394 708 L 395 709 L 400 709 L 404 711 L 407 711 L 408 712 L 418 714 L 421 716 L 426 717 L 447 728 L 461 738 L 468 745 L 469 745 L 488 767 L 493 776 L 495 778 L 503 794 L 503 796 L 509 812 L 509 816 L 510 817 L 510 821 L 511 822 L 511 829 L 512 830 L 512 840 L 513 841 L 512 865 L 511 866 L 511 871 L 510 872 L 509 881 L 508 882 L 504 896 L 494 917 L 492 919 L 487 928 L 479 937 L 479 938 L 458 958 L 442 969 L 430 975 L 428 975 L 425 977 L 423 977 L 420 979 L 418 979 L 414 981 L 411 981 L 410 982 L 407 982 L 402 984 L 397 984 L 396 985 L 391 985 L 390 986 L 381 986 L 380 987 L 356 986 L 355 985 L 350 985 L 349 984 L 341 983 L 340 982 L 330 980 L 327 978 L 322 977 L 309 971 L 307 969 L 302 967 L 293 961 L 285 954 L 284 954 L 268 938 L 253 917 L 246 903 L 246 901 L 241 890 L 241 887 L 240 886 L 238 876 L 237 875 L 236 863 L 235 862 L 235 832 L 236 831 L 236 825 L 237 824 L 237 819 L 238 818 L 240 807 L 241 806 L 242 801 L 244 798 L 244 796 L 246 793 L 246 791 L 252 779 L 264 761 L 282 742 L 283 742 L 292 734 L 309 723 L 311 723 L 320 718 L 322 718 L 327 715 L 329 715 L 333 713 L 336 713 L 337 712 L 340 712 L 341 711 L 344 711 L 349 709 L 353 709 L 354 708 L 361 708 Z M 557 507 L 562 507 L 563 506 L 580 506 L 581 507 L 586 507 L 587 508 L 590 508 L 591 509 L 596 510 L 607 516 L 615 522 L 623 530 L 625 534 L 628 537 L 633 547 L 633 549 L 635 553 L 635 556 L 636 557 L 636 561 L 637 562 L 637 570 L 638 571 L 637 572 L 637 581 L 636 582 L 636 586 L 635 587 L 635 590 L 634 591 L 633 596 L 628 606 L 623 613 L 613 623 L 606 628 L 594 634 L 592 634 L 588 636 L 584 636 L 583 637 L 574 637 L 573 638 L 561 637 L 560 636 L 552 635 L 539 629 L 527 620 L 518 610 L 512 600 L 512 598 L 510 595 L 510 593 L 508 589 L 508 586 L 507 585 L 507 580 L 506 579 L 506 563 L 507 562 L 507 559 L 508 558 L 510 548 L 515 538 L 519 532 L 532 519 L 545 511 L 547 511 Z"/>
</svg>
